<svg xmlns="http://www.w3.org/2000/svg" width="100" height="100" viewBox="0 0 27 22" version="1.1" xml:space="preserve" stroke-linejoin="round"><path d="M27 2.6c-1 0.4-2.1 0.7-3.2 0.9 1.1-0.7 2-1.8 2.4-3.1 -1.1 0.6-2.3 1.1-3.5 1.3 -1-1.1-2.4-1.7-4-1.7 -3.1 0-5.5 2.5-5.5 5.5 0 0.4 0 0.9 0.1 1.3 -4.6-0.2-8.7-2.4-11.4-5.8 -0.5 0.8-0.7 1.8-0.7 2.8 0 1.9 1 3.6 2.5 4.6 -0.9 0-1.8-0.3-2.5-0.7l0 0.1c0 2.7 1.9 4.9 4.4 5.4 -0.5 0.1-1 0.2-1.5 0.2 -0.4 0-0.7 0-1-0.1 0.7 2.2 2.7 3.8 5.2 3.8 -1.9 1.5-4.3 2.4-6.9 2.4 -0.4 0-0.9 0-1.3-0.1 2.5 1.6 5.4 2.5 8.5 2.5 10.2 0 15.8-8.4 15.8-15.8 0-0.2 0-0.5 0-0.7 1.1-0.8 2-1.8 2.8-2.9Z" fill="#fff"/></svg>