<?xml version="1.0" standalone="no"?>
<!DOCTYPE svg PUBLIC "-//W3C//DTD SVG 20010904//EN"
 "http://www.w3.org/TR/2001/REC-SVG-20010904/DTD/svg10.dtd">
<svg version="1.0" xmlns="http://www.w3.org/2000/svg"
 width="16.000000pt" height="16.000000pt" viewBox="0 0 16.000000 16.000000"
 preserveAspectRatio="xMidYMid meet">
<metadata>
Created by potrace 1.11, written by Peter Selinger 2001-2013
</metadata>
<g transform="translate(0.000000,16.000000) scale(0.003143,-0.003143)"
fill="#000000" stroke="none">
<path d="M1981 5074 c-68 -29 -73 -39 -196 -370 -195 -525 -235 -633 -301
-809 -37 -99 -78 -209 -91 -245 -14 -36 -36 -96 -49 -135 -13 -38 -31 -84 -39
-102 -8 -17 -15 -33 -15 -37 0 -5 -83 -230 -285 -771 -67 -181 -148 -398 -179
-482 -31 -83 -60 -162 -65 -175 -6 -13 -44 -117 -87 -233 -42 -115 -96 -261
-120 -323 -24 -62 -44 -115 -44 -118 0 -3 -23 -67 -52 -142 -28 -75 -64 -171
-79 -212 -73 -201 -292 -791 -309 -835 -11 -27 -21 -56 -22 -64 -3 -12 80 -15
571 -15 369 -1 578 3 586 9 7 6 33 71 58 145 25 74 82 241 127 370 44 129 116
339 160 465 43 127 128 376 190 555 61 179 120 350 130 380 10 30 53 154 95
275 42 121 93 272 115 335 58 169 126 369 240 700 56 162 125 364 153 448 29
83 55 152 58 152 4 0 18 -33 32 -72 24 -69 89 -256 299 -863 120 -346 159
-458 206 -595 22 -63 158 -455 302 -870 144 -415 297 -856 340 -980 43 -124
96 -277 118 -340 l39 -115 587 -3 c322 -1 586 0 586 2 0 3 -185 499 -411 1103
-414 1107 -542 1450 -1129 3018 -176 473 -330 879 -341 902 -14 29 -29 45 -51
52 -22 8 -202 11 -562 11 -441 -1 -537 -4 -565 -16z"/>
</g>
</svg>
